<mxfile host="app.diagrams.net" modified="2023-04-10T09:21:18.932Z" agent="Mozilla/5.0 (Macintosh; Intel Mac OS X 10_15_7) AppleWebKit/537.36 (KHTML, like Gecko) Chrome/112.0.0.0 Safari/537.36" etag="oR9Q-YpToBmbvmeUSmPu" version="21.1.4" type="github">
  <diagram name="第 1 页" id="1-NrpkV6FgpOHMMqy2pU">
    <mxGraphModel dx="2074" dy="1163" grid="1" gridSize="10" guides="1" tooltips="1" connect="1" arrows="1" fold="1" page="1" pageScale="1" pageWidth="827" pageHeight="1169" math="0" shadow="0">
      <root>
        <mxCell id="0" />
        <mxCell id="1" parent="0" />
        <mxCell id="qtXOKEnL0lzx3GWqz_FI-1" value="业务&#xa;流程图" style="swimlane;childLayout=stackLayout;resizeParent=1;resizeParentMax=0;startSize=30;horizontal=0;horizontalStack=1;" parent="1" vertex="1">
          <mxGeometry x="100" y="230" width="430" height="700" as="geometry">
            <mxRectangle x="110" y="230" width="40" height="60" as="alternateBounds" />
          </mxGeometry>
        </mxCell>
        <mxCell id="qtXOKEnL0lzx3GWqz_FI-2" value="施工单位" style="swimlane;startSize=20;" parent="qtXOKEnL0lzx3GWqz_FI-1" vertex="1">
          <mxGeometry x="30" width="140" height="700" as="geometry" />
        </mxCell>
        <mxCell id="qtXOKEnL0lzx3GWqz_FI-27" style="edgeStyle=orthogonalEdgeStyle;rounded=0;orthogonalLoop=1;jettySize=auto;html=1;exitX=0.5;exitY=1;exitDx=0;exitDy=0;entryX=0.5;entryY=0;entryDx=0;entryDy=0;" parent="qtXOKEnL0lzx3GWqz_FI-2" edge="1">
          <mxGeometry relative="1" as="geometry">
            <mxPoint x="50" y="234" as="sourcePoint" />
            <mxPoint x="50" y="264" as="targetPoint" />
          </mxGeometry>
        </mxCell>
        <mxCell id="qtXOKEnL0lzx3GWqz_FI-19" value="接单、指派负责人" style="rounded=0;whiteSpace=wrap;html=1;" parent="qtXOKEnL0lzx3GWqz_FI-2" vertex="1">
          <mxGeometry x="10" y="195" width="80" height="40" as="geometry" />
        </mxCell>
        <mxCell id="qtXOKEnL0lzx3GWqz_FI-28" style="edgeStyle=orthogonalEdgeStyle;rounded=0;orthogonalLoop=1;jettySize=auto;html=1;exitX=0.5;exitY=1;exitDx=0;exitDy=0;entryX=0.5;entryY=0;entryDx=0;entryDy=0;" parent="qtXOKEnL0lzx3GWqz_FI-2" edge="1">
          <mxGeometry relative="1" as="geometry">
            <mxPoint x="50" y="304" as="sourcePoint" />
            <mxPoint x="50" y="334" as="targetPoint" />
          </mxGeometry>
        </mxCell>
        <mxCell id="qtXOKEnL0lzx3GWqz_FI-20" value="施工" style="rounded=0;whiteSpace=wrap;html=1;" parent="qtXOKEnL0lzx3GWqz_FI-2" vertex="1">
          <mxGeometry x="10" y="265" width="80" height="40" as="geometry" />
        </mxCell>
        <mxCell id="qtXOKEnL0lzx3GWqz_FI-29" style="edgeStyle=orthogonalEdgeStyle;rounded=0;orthogonalLoop=1;jettySize=auto;html=1;exitX=0.5;exitY=1;exitDx=0;exitDy=0;entryX=0.5;entryY=0;entryDx=0;entryDy=0;" parent="qtXOKEnL0lzx3GWqz_FI-2" edge="1">
          <mxGeometry relative="1" as="geometry">
            <mxPoint x="50" y="374" as="sourcePoint" />
            <mxPoint x="47.5" y="404" as="targetPoint" />
          </mxGeometry>
        </mxCell>
        <mxCell id="qtXOKEnL0lzx3GWqz_FI-21" value="上传施工进度" style="rounded=0;whiteSpace=wrap;html=1;" parent="qtXOKEnL0lzx3GWqz_FI-2" vertex="1">
          <mxGeometry x="10" y="335" width="80" height="40" as="geometry" />
        </mxCell>
        <mxCell id="qtXOKEnL0lzx3GWqz_FI-22" value="施工完成" style="rounded=1;whiteSpace=wrap;html=1;" parent="qtXOKEnL0lzx3GWqz_FI-2" vertex="1">
          <mxGeometry x="15" y="405" width="65" height="35" as="geometry" />
        </mxCell>
        <mxCell id="qtXOKEnL0lzx3GWqz_FI-3" value="保安公司" style="swimlane;startSize=20;" parent="qtXOKEnL0lzx3GWqz_FI-1" vertex="1">
          <mxGeometry x="170" width="140" height="700" as="geometry" />
        </mxCell>
        <mxCell id="qtXOKEnL0lzx3GWqz_FI-18" value="派单" style="rounded=0;whiteSpace=wrap;html=1;" parent="qtXOKEnL0lzx3GWqz_FI-3" vertex="1">
          <mxGeometry x="25" y="194" width="80" height="40" as="geometry" />
        </mxCell>
        <mxCell id="5hSm7qCugvHUvVDO70hX-4" value="" style="edgeStyle=orthogonalEdgeStyle;rounded=0;orthogonalLoop=1;jettySize=auto;html=1;" parent="qtXOKEnL0lzx3GWqz_FI-3" source="qtXOKEnL0lzx3GWqz_FI-5" target="qtXOKEnL0lzx3GWqz_FI-6" edge="1">
          <mxGeometry relative="1" as="geometry" />
        </mxCell>
        <mxCell id="qtXOKEnL0lzx3GWqz_FI-5" value="开始" style="rounded=1;whiteSpace=wrap;html=1;" parent="qtXOKEnL0lzx3GWqz_FI-3" vertex="1">
          <mxGeometry x="35" y="80" width="70" height="20" as="geometry" />
        </mxCell>
        <mxCell id="qtXOKEnL0lzx3GWqz_FI-6" value="发起报修单" style="rounded=0;whiteSpace=wrap;html=1;" parent="qtXOKEnL0lzx3GWqz_FI-3" vertex="1">
          <mxGeometry x="30" y="130" width="80" height="40" as="geometry" />
        </mxCell>
        <mxCell id="uXRtAm0iDbRkgFRXua0p-1" value="监理审核工程工作量及质量" style="rounded=0;whiteSpace=wrap;html=1;" parent="qtXOKEnL0lzx3GWqz_FI-3" vertex="1">
          <mxGeometry x="10" y="394" width="100" height="55" as="geometry" />
        </mxCell>
        <mxCell id="qtXOKEnL0lzx3GWqz_FI-26" style="edgeStyle=orthogonalEdgeStyle;rounded=0;orthogonalLoop=1;jettySize=auto;html=1;entryX=1;entryY=0.5;entryDx=0;entryDy=0;" parent="qtXOKEnL0lzx3GWqz_FI-1" source="qtXOKEnL0lzx3GWqz_FI-18" edge="1">
          <mxGeometry relative="1" as="geometry">
            <mxPoint x="120" y="214" as="targetPoint" />
          </mxGeometry>
        </mxCell>
        <mxCell id="uXRtAm0iDbRkgFRXua0p-6" style="edgeStyle=orthogonalEdgeStyle;rounded=0;orthogonalLoop=1;jettySize=auto;html=1;exitX=1;exitY=0.5;exitDx=0;exitDy=0;entryX=0;entryY=0.5;entryDx=0;entryDy=0;" parent="qtXOKEnL0lzx3GWqz_FI-1" target="uXRtAm0iDbRkgFRXua0p-1" edge="1">
          <mxGeometry relative="1" as="geometry">
            <mxPoint x="110" y="421.5" as="sourcePoint" />
          </mxGeometry>
        </mxCell>
        <mxCell id="uXRtAm0iDbRkgFRXua0p-7" style="edgeStyle=orthogonalEdgeStyle;rounded=0;orthogonalLoop=1;jettySize=auto;html=1;exitX=1;exitY=0.5;exitDx=0;exitDy=0;entryX=0;entryY=0.5;entryDx=0;entryDy=0;" parent="qtXOKEnL0lzx3GWqz_FI-1" source="uXRtAm0iDbRkgFRXua0p-1" target="uXRtAm0iDbRkgFRXua0p-3" edge="1">
          <mxGeometry relative="1" as="geometry" />
        </mxCell>
        <mxCell id="qtXOKEnL0lzx3GWqz_FI-4" value="支队" style="swimlane;startSize=20;" parent="qtXOKEnL0lzx3GWqz_FI-1" vertex="1">
          <mxGeometry x="310" width="120" height="700" as="geometry" />
        </mxCell>
        <mxCell id="qtXOKEnL0lzx3GWqz_FI-17" value="审核" style="rounded=0;whiteSpace=wrap;html=1;" parent="qtXOKEnL0lzx3GWqz_FI-4" vertex="1">
          <mxGeometry x="20" y="130" width="80" height="40" as="geometry" />
        </mxCell>
        <mxCell id="uXRtAm0iDbRkgFRXua0p-8" style="edgeStyle=orthogonalEdgeStyle;rounded=0;orthogonalLoop=1;jettySize=auto;html=1;entryX=0.5;entryY=0;entryDx=0;entryDy=0;" parent="qtXOKEnL0lzx3GWqz_FI-4" source="uXRtAm0iDbRkgFRXua0p-3" target="uXRtAm0iDbRkgFRXua0p-4" edge="1">
          <mxGeometry relative="1" as="geometry" />
        </mxCell>
        <mxCell id="uXRtAm0iDbRkgFRXua0p-3" value="审核" style="rounded=0;whiteSpace=wrap;html=1;" parent="qtXOKEnL0lzx3GWqz_FI-4" vertex="1">
          <mxGeometry x="10" y="401.5" width="80" height="40" as="geometry" />
        </mxCell>
        <mxCell id="uXRtAm0iDbRkgFRXua0p-4" value="结束" style="rounded=0;whiteSpace=wrap;html=1;" parent="qtXOKEnL0lzx3GWqz_FI-4" vertex="1">
          <mxGeometry x="10" y="479" width="80" height="40" as="geometry" />
        </mxCell>
        <mxCell id="N_3tZtm5LHyrIAYQbWP2-1" style="edgeStyle=orthogonalEdgeStyle;rounded=0;orthogonalLoop=1;jettySize=auto;html=1;" edge="1" parent="qtXOKEnL0lzx3GWqz_FI-1" source="qtXOKEnL0lzx3GWqz_FI-17">
          <mxGeometry relative="1" as="geometry">
            <mxPoint x="280" y="210" as="targetPoint" />
            <Array as="points">
              <mxPoint x="370" y="210" />
            </Array>
          </mxGeometry>
        </mxCell>
        <mxCell id="N_3tZtm5LHyrIAYQbWP2-3" style="edgeStyle=orthogonalEdgeStyle;rounded=0;orthogonalLoop=1;jettySize=auto;html=1;entryX=0;entryY=0.5;entryDx=0;entryDy=0;" edge="1" parent="qtXOKEnL0lzx3GWqz_FI-1" source="qtXOKEnL0lzx3GWqz_FI-6" target="qtXOKEnL0lzx3GWqz_FI-17">
          <mxGeometry relative="1" as="geometry" />
        </mxCell>
      </root>
    </mxGraphModel>
  </diagram>
</mxfile>
